<svg height="512" width="512" xmlns="http://www.w3.org/2000/svg"><path d="M472 452c0 11.046-8.954 20-20 20h-20v20c0 11.046-8.954 20-20 20s-20-8.954-20-20v-20h-20c-11.046 0-20-8.954-20-20s8.954-20 20-20h20v-20c0-11.046 8.954-20 20-20s20 8.954 20 20v20h20c11.046 0 20 8.954 20 20zm0-312v192c0 11.046-8.954 20-20 20s-20-8.954-20-20V160h-40v60c0 11.046-8.954 20-20 20s-20-8.954-20-20v-60H160v60c0 11.046-8.954 20-20 20s-20-8.954-20-20v-60H80v312h212c11.046 0 20 8.954 20 20s-8.954 20-20 20H60c-11.046 0-20-8.954-20-20V140c0-11.046 8.954-20 20-20h60.946C128.891 52.523 186.423 0 256 0s127.109 52.523 135.054 120H452c11.046 0 20 8.954 20 20zm-121.341-20c-7.64-45.345-47.176-80-94.659-80s-87.019 34.655-94.659 80z" fill="#fff"/></svg>